<svg xmlns="http://www.w3.org/2000/svg" viewBox="0 0 256 256" width="256" height="256"><g fill="none" stroke="white" stroke-width="5.5" stroke-linecap="round" stroke-linejoin="round"><circle cx="128" cy="128" r="120" stroke-width="3"/><circle cx="128" cy="128" r="108" stroke-width="1.5" opacity=".7"/><path d="M 102.3 23.1 L 99.5 11.4" stroke-width="4"/><path d="M 119.4 20.3 L 118.4 8.4" stroke-width="4"/><path d="M 136.6 20.3 L 137.6 8.4" stroke-width="4"/><path d="M 153.7 23.1 L 156.5 11.4" stroke-width="4"/><path d="M 36 190 L 76 128 L 96 190" /><path d="M 76 190 L 116 94 L 136 190" /><path d="M 116 190 L 156 110 L 176 190" /><path d="M 156 190 L 196 134 L 216 190" /><circle cx="112" cy="82" r="2.6" fill="white" stroke="none"/><circle cx="152" cy="100" r="2.6" fill="white" stroke="none"/><circle cx="98" cy="70" r="2.6" fill="white" stroke="none"/><circle cx="160" cy="90" r="2.6" fill="white" stroke="none"/><path d="M 36 190 L 220 190" stroke-width="3"/></g></svg>
