<svg xmlns="http://www.w3.org/2000/svg" viewBox="0 0 256 256" width="256" height="256"><g fill="none" stroke="white" stroke-width="5.5" stroke-linecap="round" stroke-linejoin="round"><circle cx="128" cy="128" r="120" stroke-width="3"/><circle cx="128" cy="128" r="108" stroke-width="1.5" opacity=".7"/><path d="M 128 20 L 128 8" stroke-width="4"/><ellipse cx="128" cy="186" rx="80" ry="18"/><ellipse cx="128" cy="186" rx="52" ry="11" stroke-width="3"/><path d="M 121 186 L 128 38 L 135 186 Z" /><circle cx="208" cy="186" r="2.4" fill="white" stroke="none"/><circle cx="201.9" cy="192.9" r="2.4" fill="white" stroke="none"/><circle cx="184.6" cy="198.7" r="2.4" fill="white" stroke="none"/><circle cx="158.6" cy="202.6" r="2.4" fill="white" stroke="none"/><circle cx="128" cy="204" r="2.4" fill="white" stroke="none"/><circle cx="97.4" cy="202.6" r="2.4" fill="white" stroke="none"/><circle cx="71.4" cy="198.7" r="2.4" fill="white" stroke="none"/><circle cx="54.1" cy="192.9" r="2.4" fill="white" stroke="none"/><circle cx="48" cy="186" r="2.4" fill="white" stroke="none"/><circle cx="54.1" cy="179.1" r="2.4" fill="white" stroke="none"/><circle cx="71.4" cy="173.3" r="2.4" fill="white" stroke="none"/><circle cx="97.4" cy="169.4" r="2.4" fill="white" stroke="none"/><circle cx="128" cy="168" r="2.4" fill="white" stroke="none"/><circle cx="158.6" cy="169.4" r="2.4" fill="white" stroke="none"/><circle cx="184.6" cy="173.3" r="2.4" fill="white" stroke="none"/><circle cx="201.9" cy="179.1" r="2.4" fill="white" stroke="none"/></g></svg>
